<?xml version="1.0" encoding="UTF-8" standalone="no"?>
<!-- Created with Inkscape (http://www.inkscape.org/) -->

<svg
   width="7.9999599mm"
   height="8.0000296mm"
   viewBox="0 0 7.9999599 8.0000296"
   version="1.1"
   id="svg12806"
   inkscape:version="1.2.1 (9c6d41e410, 2022-07-14)"
   sodipodi:docname="Google_Scholar.svg"
   xmlns:inkscape="http://www.inkscape.org/namespaces/inkscape"
   xmlns:sodipodi="http://sodipodi.sourceforge.net/DTD/sodipodi-0.dtd"
   xmlns:xlink="http://www.w3.org/1999/xlink"
   xmlns="http://www.w3.org/2000/svg"
   xmlns:svg="http://www.w3.org/2000/svg">
  <sodipodi:namedview
     id="namedview12808"
     pagecolor="#ffffff"
     bordercolor="#000000"
     borderopacity="0.25"
     inkscape:showpageshadow="2"
     inkscape:pageopacity="0.0"
     inkscape:pagecheckerboard="0"
     inkscape:deskcolor="#d1d1d1"
     inkscape:document-units="mm"
     showgrid="false"
     inkscape:zoom="22.627417"
     inkscape:cx="21.854019"
     inkscape:cy="18.031223"
     inkscape:window-width="2560"
     inkscape:window-height="1351"
     inkscape:window-x="-9"
     inkscape:window-y="-9"
     inkscape:window-maximized="1"
     inkscape:current-layer="layer1" />
  <defs
     id="defs12803">
    <linearGradient
       inkscape:collect="always"
       xlink:href="#linearGradient13707"
       id="linearGradient21294"
       x1="144.0083"
       y1="134.09319"
       x2="134.00832"
       y2="124.09311"
       gradientUnits="userSpaceOnUse"
       gradientTransform="matrix(0.79999672,0,0,0.79999672,-36.506969,3.76912)" />
    <linearGradient
       inkscape:collect="always"
       id="linearGradient13707">
      <stop
         style="stop-color:#274eab;stop-opacity:1;"
         offset="0"
         id="stop13703" />
      <stop
         style="stop-color:#ae4eab;stop-opacity:1;"
         offset="1"
         id="stop13705" />
    </linearGradient>
  </defs>
  <g
     inkscape:label="Layer 1"
     inkscape:groupmode="layer"
     id="layer1"
     transform="translate(-70.699242,-103.0432)">
    <path
       id="circle21262"
       style="fill:url(#linearGradient21294);fill-opacity:1;stroke-width:0.67107;stroke-linecap:round"
       d="m 74.699192,103.0432 a 3.9999896,3.9999896 0 0 0 -3.99995,4.00002 3.9999896,3.9999896 0 0 0 3.99995,4.00001 3.9999896,3.9999896 0 0 0 4.00001,-4.00001 3.9999896,3.9999896 0 0 0 -4.00001,-4.00002 z m -0.54351,1.3544 2.89571,0.0289 -0.26935,0.2886 -0.0289,0.14431 0.12511,0.33669 0.0288,0.69269 0.0386,1.04866 -0.0962,0.16349 h -0.25972 l -0.0866,-0.21164 0.0385,-1.77017 0.0866,-0.16356 -0.0385,-0.1635 -0.76004,0.61567 0.13468,0.42329 -0.11542,0.52913 -0.4618,0.51951 -0.16356,0.32713 0.25016,0.29823 0.49062,0.44255 0.23089,0.57721 -0.24052,0.70226 -0.52914,0.30787 -0.57722,0.15394 -0.56759,-0.01 -0.5964,-0.19239 -0.45218,-0.32712 -0.10585,-0.35594 0.21164,-0.58685 0.67344,-0.3944 0.81775,-0.13474 -0.0674,-0.14431 -0.0866,-0.25971 0.01,-0.24053 -0.47137,-0.0481 -0.39446,-0.24054 -0.25972,-0.38483 -0.10585,-0.40402 -1.10636,-0.0385 z m 0.42675,0.65861 a 0.94489853,0.67084767 68.933723 0 0 -0.19014,0.0322 0.94489853,0.67084767 68.933723 0 0 -0.28636,1.12285 0.94489853,0.67084767 68.933723 0 0 0.96564,0.64065 0.94489853,0.67084767 68.933723 0 0 0.28636,-1.12292 0.94489853,0.67084767 68.933723 0 0 -0.7755,-0.67281 z m 0.16901,2.82819 a 1.0469361,0.77968781 0.432217 0 0 -1.05281,0.77171 1.0469361,0.77968781 0.432217 0 0 1.04107,0.78758 1.0469361,0.77968781 0.432217 0 0 1.05275,-0.77178 1.0469361,0.77968781 0.432217 0 0 -1.04101,-0.78751 z" />
  </g>
</svg>
